REM DIRINDEX 1\2,1\3,1\4,1\5,1\6
REM DIRNAME cjc030,folder01,folder02,folder03,folder04,folder05
TITLE ""
FILE "Disc2Track35.mp3" MP3
  TRACK 01 AUDIO
    TITLE "3:cjc030_03109"
    INDEX 01 00:00:00
  TRACK 02 AUDIO
    TITLE "0:"
    INDEX 01 00:01:30
  TRACK 03 AUDIO
    TITLE "4:cjc030_03110"
    INDEX 01 00:01:40
  TRACK 04 AUDIO
    TITLE "0:"
    INDEX 01 00:02:73
  TRACK 05 AUDIO
    TITLE "5:cjc030_03111"
    INDEX 01 00:03:06
  TRACK 06 AUDIO
    TITLE "0:"
    INDEX 01 00:04:42
  TRACK 07 AUDIO
    TITLE "6:cjc030_03112"
    INDEX 01 00:04:54
  TRACK 08 AUDIO
    TITLE "0:"
    INDEX 01 00:08:66
  TRACK 09 AUDIO
    TITLE "3:cjc030_03113"
    INDEX 01 00:09:40
  TRACK 10 AUDIO
    TITLE "0:"
    INDEX 01 00:11:07
  TRACK 11 AUDIO
    TITLE "4:cjc030_03114"
    INDEX 01 00:11:17
  TRACK 12 AUDIO
    TITLE "0:"
    INDEX 01 00:12:09
  TRACK 13 AUDIO
    TITLE "5:cjc030_03115"
    INDEX 01 00:12:16
  TRACK 14 AUDIO
    TITLE "0:"
    INDEX 01 00:13:61
  TRACK 15 AUDIO
    TITLE "3:cjc030_03116"
    INDEX 01 00:14:37
  TRACK 16 AUDIO
    TITLE "0:"
    INDEX 01 00:16:06
  TRACK 17 AUDIO
    TITLE "4:cjc030_03117"
    INDEX 01 00:16:18
  TRACK 18 AUDIO
    TITLE "0:"
    INDEX 01 00:18:56
  TRACK 19 AUDIO
    TITLE "5:cjc030_03118"
    INDEX 01 00:18:64
  TRACK 20 AUDIO
    TITLE "0:"
    INDEX 01 00:20:37
  TRACK 21 AUDIO
    TITLE "6:cjc030_03119"
    INDEX 01 00:20:49
  TRACK 22 AUDIO
    TITLE "0:"
    INDEX 01 00:24:25
  TRACK 23 AUDIO
    TITLE "3:cjc030_03120"
    INDEX 01 00:24:71
  TRACK 24 AUDIO
    TITLE "0:"
    INDEX 01 00:26:20
  TRACK 25 AUDIO
    TITLE "4:cjc030_03121"
    INDEX 01 00:26:30
  TRACK 26 AUDIO
    TITLE "0:"
    INDEX 01 00:27:67
  TRACK 27 AUDIO
    TITLE "5:cjc030_03122"
    INDEX 01 00:28:00
  TRACK 28 AUDIO
    TITLE "0:"
    INDEX 01 00:29:25
  TRACK 29 AUDIO
    TITLE "6:cjc030_03123"
    INDEX 01 00:29:38
  TRACK 30 AUDIO
    TITLE "0:"
    INDEX 01 00:32:19
  TRACK 31 AUDIO
    TITLE "3:cjc030_03124"
    INDEX 01 00:32:68
  TRACK 32 AUDIO
    TITLE "0:"
    INDEX 01 00:34:28
  TRACK 33 AUDIO
    TITLE "4:cjc030_03125"
    INDEX 01 00:34:34
  TRACK 34 AUDIO
    TITLE "0:"
    INDEX 01 00:35:33
  TRACK 35 AUDIO
    TITLE "5:cjc030_03126"
    INDEX 01 00:35:41
  TRACK 36 AUDIO
    TITLE "0:"
    INDEX 01 00:37:01
  TRACK 37 AUDIO
    TITLE "3:cjc030_03127"
    INDEX 01 00:37:54
  TRACK 38 AUDIO
    TITLE "0:"
    INDEX 01 00:38:59
  TRACK 39 AUDIO
    TITLE "4:cjc030_03128"
    INDEX 01 00:38:67
  TRACK 40 AUDIO
    TITLE "0:"
    INDEX 01 00:40:34
  TRACK 41 AUDIO
    TITLE "5:cjc030_03129"
    INDEX 01 00:40:44
  TRACK 42 AUDIO
    TITLE "0:"
    INDEX 01 00:41:49
  TRACK 43 AUDIO
    TITLE "6:cjc030_03130"
    INDEX 01 00:41:61
  TRACK 44 AUDIO
    TITLE "0:"
    INDEX 01 00:44:61
  TRACK 45 AUDIO
    TITLE "3:cjc030_03131"
    INDEX 01 00:45:35
  TRACK 46 AUDIO
    TITLE "0:"
    INDEX 01 00:46:49
  TRACK 47 AUDIO
    TITLE "4:cjc030_03132"
    INDEX 01 00:46:58
  TRACK 48 AUDIO
    TITLE "0:"
    INDEX 01 00:47:60
  TRACK 49 AUDIO
    TITLE "5:cjc030_03133"
    INDEX 01 00:47:68
  TRACK 50 AUDIO
    TITLE "0:"
    INDEX 01 00:49:06
  TRACK 51 AUDIO
    TITLE "6:cjc030_03134"
    INDEX 01 00:49:20
  TRACK 52 AUDIO
    TITLE "0:"
    INDEX 01 00:50:68
  TRACK 53 AUDIO
    TITLE "3:cjc030_03135"
    INDEX 01 00:51:42
  TRACK 54 AUDIO
    TITLE "0:"
    INDEX 01 00:52:59
  TRACK 55 AUDIO
    TITLE "4:cjc030_03136"
    INDEX 01 00:52:67
  TRACK 56 AUDIO
    TITLE "0:"
    INDEX 01 00:53:64
  TRACK 57 AUDIO
    TITLE "5:cjc030_03137"
    INDEX 01 00:53:72
  TRACK 58 AUDIO
    TITLE "0:"
    INDEX 01 00:55:16
  TRACK 59 AUDIO
    TITLE "3:cjc030_03138"
    INDEX 01 00:55:69
  TRACK 60 AUDIO
    TITLE "0:"
    INDEX 01 00:57:13
  TRACK 61 AUDIO
    TITLE "4:cjc030_03139"
    INDEX 01 00:57:21
  TRACK 62 AUDIO
    TITLE "0:"
    INDEX 01 00:58:62
  TRACK 63 AUDIO
    TITLE "5:cjc030_03140"
    INDEX 01 00:58:71
  TRACK 64 AUDIO
    TITLE "0:"
    INDEX 01 01:00:15
  TRACK 65 AUDIO
    TITLE "6:cjc030_03141"
    INDEX 01 01:00:29
  TRACK 66 AUDIO
    TITLE "0:"
    INDEX 01 01:03:49
  TRACK 67 AUDIO
    TITLE "3:cjc030_03142"
    INDEX 01 01:04:25
  TRACK 68 AUDIO
    TITLE "0:"
    INDEX 01 01:05:46
  TRACK 69 AUDIO
    TITLE "4:cjc030_03143"
    INDEX 01 01:05:52
  TRACK 70 AUDIO
    TITLE "0:"
    INDEX 01 01:06:63
  TRACK 71 AUDIO
    TITLE "5:cjc030_03144"
    INDEX 01 01:06:71
  TRACK 72 AUDIO
    TITLE "0:"
    INDEX 01 01:08:17
  TRACK 73 AUDIO
    TITLE "6:cjc030_03145"
    INDEX 01 01:08:31
  TRACK 74 AUDIO
    TITLE "0:"
    INDEX 01 01:12:01
  TRACK 75 AUDIO
    TITLE "3:cjc030_03146"
    INDEX 01 01:12:50
  TRACK 76 AUDIO
    TITLE "0:"
    INDEX 01 01:13:73
  TRACK 77 AUDIO
    TITLE "4:cjc030_03147"
    INDEX 01 01:14:04
  TRACK 78 AUDIO
    TITLE "0:"
    INDEX 01 01:15:44
  TRACK 79 AUDIO
    TITLE "5:cjc030_03148"
    INDEX 01 01:15:54
  TRACK 80 AUDIO
    TITLE "0:"
    INDEX 01 01:17:02
  TRACK 81 AUDIO
    TITLE "6:cjc030_03149"
    INDEX 01 01:17:14
  TRACK 82 AUDIO
    TITLE "0:"
    INDEX 01 01:20:32
  TRACK 83 AUDIO
    TITLE "3:cjc030_03150"
    INDEX 01 01:21:06
  TRACK 84 AUDIO
    TITLE "0:"
    INDEX 01 01:22:39
  TRACK 85 AUDIO
    TITLE "4:cjc030_03151"
    INDEX 01 01:22:48
  TRACK 86 AUDIO
    TITLE "0:"
    INDEX 01 01:23:58
  TRACK 87 AUDIO
    TITLE "5:cjc030_03152"
    INDEX 01 01:23:65
  TRACK 88 AUDIO
    TITLE "0:"
    INDEX 01 01:25:23
  TRACK 89 AUDIO
    TITLE "6:cjc030_03153"
    INDEX 01 01:25:35
  TRACK 90 AUDIO
    TITLE "0:"
    INDEX 01 01:29:72
  TRACK 91 AUDIO
    TITLE "3:cjc030_03154"
    INDEX 01 01:30:46
  TRACK 92 AUDIO
    TITLE "0:"
    INDEX 01 01:32:04
  TRACK 93 AUDIO
    TITLE "4:cjc030_03155"
    INDEX 01 01:32:12
  TRACK 94 AUDIO
    TITLE "0:"
    INDEX 01 01:33:09
  TRACK 95 AUDIO
    TITLE "5:cjc030_03156"
    INDEX 01 01:33:17
  TRACK 96 AUDIO
    TITLE "0:"
    INDEX 01 01:34:50
  TRACK 97 AUDIO
    TITLE "3:cjc030_03157"
    INDEX 01 01:35:35
  TRACK 98 AUDIO
    TITLE "0:"
    INDEX 01 01:36:45
  TRACK 99 AUDIO
    TITLE "4:cjc030_03158"
    INDEX 01 01:36:54
  TRACK 100 AUDIO
    TITLE "0:"
    INDEX 01 01:39:19
  TRACK 101 AUDIO
    TITLE "5:cjc030_03159"
    INDEX 01 01:39:25
  TRACK 102 AUDIO
    TITLE "0:"
    INDEX 01 01:40:38
  TRACK 103 AUDIO
    TITLE "6:cjc030_03160"
    INDEX 01 01:40:52
  TRACK 104 AUDIO
    TITLE "0:"
    INDEX 01 01:44:15
  TRACK 105 AUDIO
    TITLE "3:cjc030_03161"
    INDEX 01 01:44:64
  TRACK 106 AUDIO
    TITLE "0:"
    INDEX 01 01:45:69
  TRACK 107 AUDIO
    TITLE "4:cjc030_03162"
    INDEX 01 01:46:00
  TRACK 108 AUDIO
    TITLE "0:"
    INDEX 01 01:46:63
  TRACK 109 AUDIO
    TITLE "5:cjc030_03163"
    INDEX 01 01:46:70
  TRACK 110 AUDIO
    TITLE "0:"
    INDEX 01 01:47:74
  TRACK 111 AUDIO
    TITLE "3:cjc030_03164"
    INDEX 01 01:48:56
  TRACK 112 AUDIO
    TITLE "0:"
    INDEX 01 01:49:71
  TRACK 113 AUDIO
    TITLE "4:cjc030_03165"
    INDEX 01 01:50:06
  TRACK 114 AUDIO
    TITLE "0:"
    INDEX 01 01:51:32
  TRACK 115 AUDIO
    TITLE "5:cjc030_03166"
    INDEX 01 01:51:40
  TRACK 116 AUDIO
    TITLE "0:"
    INDEX 01 01:52:57
  TRACK 117 AUDIO
    TITLE "6:cjc030_03167"
    INDEX 01 01:52:67
  TRACK 118 AUDIO
    TITLE "0:"
    INDEX 01 01:55:38
  TRACK 119 AUDIO
    TITLE "3:cjc030_03168"
    INDEX 01 01:56:12
  TRACK 120 AUDIO
    TITLE "0:"
    INDEX 01 01:57:31
  TRACK 121 AUDIO
    TITLE "4:cjc030_03169"
    INDEX 01 01:57:37
  TRACK 122 AUDIO
    TITLE "0:"
    INDEX 01 01:58:21
  TRACK 123 AUDIO
    TITLE "5:cjc030_03170"
    INDEX 01 01:58:29
  TRACK 124 AUDIO
    TITLE "0:"
    INDEX 01 01:59:46
  TRACK 125 AUDIO
    TITLE "6:cjc030_03171"
    INDEX 01 01:59:59
  TRACK 126 AUDIO
    TITLE "0:"
    INDEX 01 02:01:58
